PathFileType	4	(X/Y/Z)	C:/Users/opensim2020/Desktop/walking_exp_matlab/subject02_walking14_straight_04.trc	
DataRate	CameraRate	NumFrames	NumMarkers	Units	OrigDataRate	OrigDataStartFrame	OrigNumFrames	
100.00	100.00	4	41	mm	100.00	1797	137	
Frame#	Time	LFHD			RFHD			LBHD			RBHD			C7			T10			CLAV			STRN			RBAK			LSHO			LUPA			LELB			LFRM			LWRA			LWRB			LFIN			RSHO			RUPA			RELB			RFRM			RWRA			RWRB			RFIN			LASI			RASI			LPSI			RPSI			LTHI			LKNE			LTIB			LANK			LHEE			LTOE			RTHI			RKNE			RTIB			RANK			RHEE			RTOE			*39			*40			
		X1	Y1	Z1	X2	Y2	Z2	X3	Y3	Z3	X4	Y4	Z4	X5	Y5	Z5	X6	Y6	Z6	X7	Y7	Z7	X8	Y8	Z8	X9	Y9	Z9	X10	Y10	Z10	X11	Y11	Z11	X12	Y12	Z12	X13	Y13	Z13	X14	Y14	Z14	X15	Y15	Z15	X16	Y16	Z16	X17	Y17	Z17	X18	Y18	Z18	X19	Y19	Z19	X20	Y20	Z20	X21	Y21	Z21	X22	Y22	Z22	X23	Y23	Z23	X24	Y24	Z24	X25	Y25	Z25	X26	Y26	Z26	X27	Y27	Z27	X28	Y28	Z28	X29	Y29	Z29	X30	Y30	Z30	X31	Y31	Z31	X32	Y32	Z32	X33	Y33	Z33	X34	Y34	Z34	X35	Y35	Z35	X36	Y36	Z36	X37	Y37	Z37	X38	Y38	Z38	X39	Y39	Z39	X40	Y40	Z40	X41	Y41	Z41	

120	1.190	-942.21649	-697.20923	1708.23657	-1083.69543	-722.07813	1699.92993	-964.96106	-562.44897	1643.18140	-1107.56775	-575.78149	1634.16882	-1050.23779	-520.91705	1494.21326	-1070.56433	-502.67978	1213.33008	-1020.45392	-665.02606	1439.36279	-1035.35486	-739.63690	1277.89014	-1128.24231	-490.25015	1315.91492	-864.84821	-561.46692	1461.09729	-800.47498	-502.51544	1268.09119	-796.35773	-465.09619	1135.89563	-777.85938	-422.47644	1016.03705	-773.43201	-433.59280	875.58801	-767.83557	-382.65729	899.86487	-752.04059	-371.10605	836.91473	-1224.18555	-615.00104	1480.10278	-1328.01538	-619.22223	1298.62671	-1372.97327	-672.21057	1166.72644	-1379.39075	-770.86584	1092.35059	-1347.44934	-885.44049	1033.60986	-1380.14795	-858.63885	995.90253	-1380.80542	-928.60687	985.67090	-927.49707	-742.82349	969.85950	-1176.81897	-747.63245	948.91492	-1014.03644	-532.94519	1008.32886	-1131.65759	-532.37518	1007.99164	-891.29987	-765.29840	667.34119	-939.54938	-789.25812	471.13849	-950.05743	-744.55084	282.44827	-993.75079	-753.18219	66.34361	-1050.65088	-720.80841	39.49301	-969.93060	-906.98975	30.32498	-1283.35168	-636.72485	650.95325	-1284.72778	-606.68115	450.05231	-1292.71875	-451.40738	350.54230	-1262.23267	-301.66901	232.17989	-1198.96594	-251.22675	223.88443	-1278.82935	-329.09314	69.09576	-1043.11011	-617.36353	1787.06091	-3357.29590	2846.04932	1034.39136 
121	1.200	-938.49292	-709.46362	1710.38696	-1080.07971	-735.18103	1702.29456	-962.64532	-574.76282	1645.16382	-1105.15869	-589.02393	1636.70129	-1048.18945	-533.81012	1496.68713	-1068.73608	-515.20764	1215.68494	-1018.13684	-677.41028	1441.75244	-1032.83447	-752.05676	1280.14038	-1126.57056	-502.50003	1318.47083	-862.80627	-573.30530	1463.48291	-798.46234	-516.03815	1269.46045	-794.12195	-480.31244	1136.85449	-775.72107	-439.62729	1016.02411	-771.77350	-454.76474	875.69244	-765.73834	-403.23856	898.83313	-750.24115	-393.61563	835.24139	-1222.12427	-627.81995	1482.04224	-1325.16260	-631.03101	1300.06653	-1369.11499	-682.85614	1167.46399	-1375.15747	-780.13879	1091.01953	-1342.81104	-893.42133	1029.40662	-1375.99829	-866.02545	992.80475	-1376.04907	-935.82294	980.90576	-924.34869	-754.12531	971.62939	-1174.49841	-760.36835	951.24133	-1011.64282	-544.88239	1010.79810	-1128.78247	-544.51465	1010.45477	-888.92438	-771.74933	666.56946	-937.70215	-794.07977	470.81827	-948.55029	-747.03436	282.84256	-993.68481	-753.21301	66.40902	-1050.68420	-720.78949	39.51970	-969.82312	-907.02185	30.25759	-1280.68274	-658.20325	652.78052	-1282.68274	-633.66479	451.74069	-1290.05896	-477.75742	354.01059	-1258.87756	-327.20935	236.68854	-1194.90271	-276.86099	226.50742	-1281.66553	-355.23471	74.93365	-1039.85718	-630.18591	1789.30664	-3357.25293	2845.96436	1034.37952 
122	1.210	-935.18158	-721.31805	1711.96570	-1076.45544	-748.24738	1704.75269	-960.89520	-587.19574	1647.29907	-1102.94751	-602.16864	1639.38562	-1046.08093	-546.11450	1499.40173	-1067.01050	-527.53229	1218.28638	-1015.98718	-689.62488	1444.16638	-1030.42126	-764.19965	1282.45313	-1124.13184	-515.10828	1320.77600	-860.85126	-585.19141	1466.12329	-796.28271	-529.68530	1271.52856	-791.48596	-496.43127	1137.95313	-773.37183	-458.22729	1016.09473	-770.15643	-476.89490	876.22296	-763.48279	-424.58707	897.79724	-748.20789	-416.74854	834.12042	-1220.04663	-640.36816	1484.37585	-1322.15686	-642.80847	1301.64380	-1364.49475	-693.58521	1167.95654	-1371.02747	-789.23358	1089.63831	-1338.21228	-900.86945	1025.18091	-1372.06189	-872.98615	989.59930	-1371.40674	-942.50159	975.83618	-921.85461	-765.40717	973.62488	-1172.88965	-772.75031	954.12781	-1009.14020	-556.67877	1013.41742	-1125.84021	-556.30450	1013.01001	-886.44659	-777.25208	665.47559	-935.84839	-798.67365	470.45297	-946.71271	-749.74310	283.00549	-993.63519	-753.17719	66.38663	-1050.69934	-720.72717	39.53885	-969.52283	-906.67395	30.13400	-1278.31873	-679.41522	655.19482	-1280.33521	-660.41278	454.38394	-1287.14954	-504.52216	356.88513	-1255.46338	-353.62622	239.92412	-1190.99915	-303.25101	227.74583	-1283.58716	-383.32635	79.82296	-1036.70374	-643.03479	1791.68884	-3357.53784	2845.86938	1034.44849 
123	1.220	-931.70966	-733.07355	1714.21252	-1073.01135	-761.31702	1707.18860	-958.35596	-598.95496	1649.69421	-1100.69849	-615.28839	1642.13550	-1044.18835	-558.59320	1502.25745	-1065.28088	-539.70020	1220.94263	-1013.94025	-701.76483	1446.58069	-1028.05298	-776.22467	1284.76428	-1122.63281	-527.23236	1323.42883	-858.98059	-597.07092	1468.94275	-794.05627	-543.60095	1273.33325	-789.23163	-511.82700	1139.18091	-771.09027	-477.31271	1015.94946	-768.16016	-499.46579	876.72272	-760.98846	-446.97565	896.92053	-745.96802	-440.97906	833.14557	-1217.91138	-653.09174	1486.61768	-1319.50928	-654.41333	1303.51575	-1361.02673	-704.13342	1169.21008	-1366.91882	-798.16028	1088.24548	-1333.74561	-908.05847	1020.58612	-1368.30640	-879.52545	986.27289	-1366.65430	-948.72058	969.95520	-919.60120	-776.84760	975.62360	-1171.74548	-784.82306	957.42310	-1006.56482	-568.44336	1016.03662	-1122.78174	-568.03760	1015.60181	-884.01184	-782.22748	664.77740	-933.65741	-802.61688	469.97888	-944.68097	-752.12433	282.87695	-993.51318	-753.05927	66.39591	-1050.75867	-720.61597	39.64330	-969.18896	-906.37604	30.11145	-1275.63403	-700.15369	657.84760	-1277.65906	-686.85272	457.50824	-1283.82556	-531.42609	359.24124	-1251.97083	-380.63559	241.99020	-1187.43958	-330.38348	227.40154	-1285.44336	-413.44116	84.27129	-1033.50085	-656.04321	1794.16040	-3357.37671	2845.95410	1034.23645 
